name GIL02_xslow2EmgEnv.mot
datacolumns 51
datarows 10
range 0.80462945 0.81296277
endheader
                time	   rect_fem_l_emgRec	   rect_fem_l_emgEnv	   rect_fem_l_emgAve	   rect_fem_l_emgSDp	   rect_fem_l_emgSDm	   rect_fem_r_emgRec	   rect_fem_r_emgEnv	   rect_fem_r_emgAve	   rect_fem_r_emgSDp	   rect_fem_r_emgSDm	   med_hams_l_emgRec	   med_hams_l_emgEnv	   med_hams_l_emgAve	   med_hams_l_emgSDp	   med_hams_l_emgSDm	   med_hams_r_emgRec	   med_hams_r_emgEnv	   med_hams_r_emgAve	   med_hams_r_emgSDp	   med_hams_r_emgSDm	   lat_hams_l_emgRec	   lat_hams_l_emgEnv	   lat_hams_l_emgAve	   lat_hams_l_emgSDp	   lat_hams_l_emgSDm	   lat_hams_r_emgRec	   lat_hams_r_emgEnv	   lat_hams_r_emgAve	   lat_hams_r_emgSDp	   lat_hams_r_emgSDm	    tib_ant_l_emgRec	    tib_ant_l_emgEnv	    tib_ant_l_emgAve	    tib_ant_l_emgSDp	    tib_ant_l_emgSDm	    tib_ant_r_emgRec	    tib_ant_r_emgEnv	    tib_ant_r_emgAve	    tib_ant_r_emgSDp	    tib_ant_r_emgSDm	    gas_sol_l_emgRec	    gas_sol_l_emgEnv	    gas_sol_l_emgAve	    gas_sol_l_emgSDp	    gas_sol_l_emgSDm	    gas_sol_r_emgRec	    gas_sol_r_emgEnv	    gas_sol_r_emgAve	    gas_sol_r_emgSDp	    gas_sol_r_emgSDm	
          0.80462945	          0.08332059	          0.10084064	          0.07501709	          0.07501709	          0.07501709	          0.00471739	          0.60815402	          0.11569548	          0.11569548	          0.11569548	          0.06384730	          0.24536395	          0.37664443	          0.37664443	          0.37664443	          0.04694590	          0.18424820	          0.22875123	          0.22875123	          0.22875123	          0.02637821	          0.12843538	          0.11844447	          0.11844447	          0.11844447	          0.14866574	          0.37037053	          0.29814714	          0.29814714	          0.29814714	          0.05884147	          0.19084774	          0.19546071	          0.19546071	          0.19546071	          0.05753282	          0.15831116	          0.25014597	          0.25014597	          0.25014597	          0.14952005	          0.75092180	          0.74703455	          0.74703455	          0.74703455	          0.00068684	          0.02612700	          0.06543257	          0.06543257	          0.06543257	
          0.80555540	          0.04850660	          0.09954101	          0.07474955	          0.07474955	          0.07474955	          0.08202774	          0.61388355	          0.11661051	          0.11661051	          0.11661051	          0.04135173	          0.23646268	          0.37463304	          0.37463304	          0.37463304	          0.05189722	          0.18388825	          0.22855712	          0.22855712	          0.22855712	          0.00840667	          0.12849809	          0.11814383	          0.11814383	          0.11814383	          0.15006400	          0.36760660	          0.29983747	          0.29983747	          0.29983747	          0.01480591	          0.19441230	          0.19611143	          0.19611143	          0.19611143	          0.10724303	          0.15984747	          0.24969932	          0.24969932	          0.24969932	          0.03372284	          0.74690893	          0.74912268	          0.74912268	          0.74912268	          0.00121152	          0.02703599	          0.06638115	          0.06638115	          0.06638115	
          0.80648136	          0.02159076	          0.09821166	          0.07447810	          0.07447810	          0.07447810	          0.05803176	          0.61962321	          0.11752781	          0.11752781	          0.11752781	          0.02525336	          0.22773456	          0.37258455	          0.37258455	          0.37258455	          0.05032609	          0.18356928	          0.22837591	          0.22837591	          0.22837591	          0.01345198	          0.12854007	          0.11783962	          0.11783962	          0.11783962	          0.13051755	          0.36470855	          0.30153567	          0.30153567	          0.30153567	          0.01749031	          0.19808115	          0.19676758	          0.19676758	          0.19676758	          0.21459058	          0.16132053	          0.24926448	          0.24926448	          0.24926448	          0.05226913	          0.74277804	          0.75121289	          0.75121289	          0.75121289	          0.00190598	          0.02797500	          0.06732858	          0.06732858	          0.06732858	
          0.80740726	          0.03161330	          0.09685563	          0.07420290	          0.07420290	          0.07420290	          0.22979924	          0.62537600	          0.11844724	          0.11844724	          0.11844724	          0.03811190	          0.21919336	          0.37049979	          0.37049979	          0.37049979	          0.05228962	          0.18328601	          0.22820760	          0.22820760	          0.22820760	          0.01136210	          0.12856001	          0.11753187	          0.11753187	          0.11753187	          0.10452852	          0.36168488	          0.30324164	          0.30324164	          0.30324164	          0.00225328	          0.20184970	          0.19742922	          0.19742922	          0.19742922	          0.13873733	          0.16272732	          0.24884142	          0.24884142	          0.24884142	          0.29406481	          0.73854372	          0.75330490	          0.75330490	          0.75330490	          0.00234883	          0.02894336	          0.06827466	          0.06827466	          0.06827466	
          0.80833316	          0.03562904	          0.09547596	          0.07392404	          0.07392404	          0.07392404	          0.20539700	          0.63114469	          0.11936875	          0.11936875	          0.11936875	          0.08819647	          0.21085226	          0.36837912	          0.36837912	          0.36837912	          0.04168492	          0.18303310	          0.22805205	          0.22805205	          0.22805205	          0.01562666	          0.12855673	          0.11722064	          0.11722064	          0.11722064	          0.08304782	          0.35854423	          0.30495536	          0.30495536	          0.30495536	          0.06889233	          0.20571295	          0.19809639	          0.19809639	          0.19809639	          0.10555048	          0.16406503	          0.24843015	          0.24843015	          0.24843015	          0.18356438	          0.73422117	          0.75539786	          0.75539786	          0.75539786	          0.00476914	          0.02994030	          0.06921925	          0.06921925	          0.06921925	
          0.80925906	          0.01964769	          0.09407573	          0.07364170	          0.07364170	          0.07364170	          0.09318347	          0.63693171	          0.12029233	          0.12029233	          0.12029233	          0.11748762	          0.20272385	          0.36622316	          0.36622316	          0.36622316	          0.02817722	          0.18280519	          0.22790921	          0.22790921	          0.22790921	          0.03213414	          0.12852915	          0.11690599	          0.11690599	          0.11690599	          0.05803295	          0.35529533	          0.30667678	          0.30667678	          0.30667678	          0.08739507	          0.20966547	          0.19876920	          0.19876920	          0.19876920	          0.19644183	          0.16533104	          0.24803065	          0.24803065	          0.24803065	          0.22129839	          0.72982616	          0.75749141	          0.75749141	          0.75749141	          0.01100641	          0.03096503	          0.07016219	          0.07016219	          0.07016219	
          0.81018502	          0.00792963	          0.09265807	          0.07335597	          0.07335597	          0.07335597	          0.02209731	          0.64273925	          0.12121790	          0.12121790	          0.12121790	          0.08462819	          0.19482007	          0.36403239	          0.36403239	          0.36403239	          0.01774996	          0.18259683	          0.22777893	          0.22777893	          0.22777893	          0.04764413	          0.12847629	          0.11658791	          0.11658791	          0.11658791	          0.02589453	          0.35194697	          0.30840608	          0.30840608	          0.30840608	          0.00401229	          0.21370145	          0.19944775	          0.19944775	          0.19944775	          0.08278405	          0.16652294	          0.24764289	          0.24764289	          0.24764289	          0.45509579	          0.72537492	          0.75958484	          0.75958484	          0.75958484	          0.00807001	          0.03201668	          0.07110334	          0.07110334	          0.07110334	
          0.81111097	          0.03195347	          0.09122608	          0.07306705	          0.07306705	          0.07306705	          0.07541345	          0.64856915	          0.12214536	          0.12214536	          0.12214536	          0.02063292	          0.18715225	          0.36180747	          0.36180747	          0.36180747	          0.00166165	          0.18240256	          0.22766124	          0.22766124	          0.22766124	          0.04560958	          0.12839730	          0.11626649	          0.11626649	          0.11626649	          0.00574031	          0.34850797	          0.31014293	          0.31014293	          0.31014293	          0.08551599	          0.21781464	          0.20013204	          0.20013204	          0.20013204	          0.02346392	          0.16763853	          0.24726692	          0.24726692	          0.24726692	          0.46913304	          0.72088415	          0.76167750	          0.76167750	          0.76167750	          0.00138417	          0.03309433	          0.07204244	          0.07204244	          0.07204244	
          0.81203687	          0.04479046	          0.08978292	          0.07277509	          0.07277509	          0.07277509	          0.06932073	          0.65442292	          0.12307457	          0.12307457	          0.12307457	          0.00497619	          0.17973104	          0.35954934	          0.35954934	          0.35954934	          0.00475177	          0.18221690	          0.22755598	          0.22755598	          0.22755598	          0.00295473	          0.12829144	          0.11594184	          0.11594184	          0.11594184	          0.04301025	          0.34498712	          0.31188741	          0.31188741	          0.31188741	          0.11047948	          0.22199843	          0.20082211	          0.20082211	          0.20082211	          0.04217088	          0.16867583	          0.24690269	          0.24690269	          0.24690269	          0.42882670	          0.71637090	          0.76376849	          0.76376849	          0.76376849	          0.00310107	          0.03419703	          0.07297927	          0.07297927	          0.07297927	
          0.81296277	          0.02812723	          0.08833169	          0.07248022	          0.07248022	          0.07248022	          0.13162212	          0.66030176	          0.12400550	          0.12400550	          0.12400550	          0.01150038	          0.17256642	          0.35725841	          0.35725841	          0.35725841	          0.00397471	          0.18203434	          0.22746305	          0.22746305	          0.22746305	          0.03339014	          0.12815810	          0.11561393	          0.11561393	          0.11561393	          0.09305086	          0.34139319	          0.31363934	          0.31363934	          0.31363934	          0.10259967	          0.22624585	          0.20151806	          0.20151806	          0.20151806	          0.03157126	          0.16963302	          0.24655025	          0.24655025	          0.24655025	          0.30336398	          0.71185253	          0.76585734	          0.76585734	          0.76585734	          0.00154828	          0.03532376	          0.07391373	          0.07391373	          0.07391373	
